<svg width="706" height="94" viewBox="0 0 706 94" fill="none" xmlns="http://www.w3.org/2000/svg">
<path d="M40.125 68.0625C40.125 66.6458 39.9792 65.375 39.6875 64.25C39.4375 63.0833 38.9167 62 38.125 61C37.375 60 36.2292 59 34.6875 58C33.1458 56.9583 31.0833 55.875 28.5 54.75C25.25 53.4167 22.0625 51.9167 18.9375 50.25C15.8125 48.5417 13 46.5625 10.5 44.3125C8.04167 42.0208 6.0625 39.3542 4.5625 36.3125C3.0625 33.2292 2.3125 29.6458 2.3125 25.5625C2.3125 21.6458 3.0625 18.125 4.5625 15C6.10417 11.8333 8.20833 9.14583 10.875 6.9375C13.5833 4.6875 16.7708 2.97917 20.4375 1.8125C24.1042 0.604167 28.1042 0 32.4375 0C38.1875 0 43.25 1.16667 47.625 3.5C52.0417 5.79167 55.4792 9.0625 57.9375 13.3125C60.4375 17.5208 61.6875 22.5 61.6875 28.25H40.375C40.375 25.9583 40.0833 23.9375 39.5 22.1875C38.9167 20.4375 38 19.0625 36.75 18.0625C35.5417 17.0625 33.9375 16.5625 31.9375 16.5625C30.1458 16.5625 28.625 16.9792 27.375 17.8125C26.1667 18.6458 25.25 19.7708 24.625 21.1875C24 22.5625 23.6875 24.0833 23.6875 25.75C23.6875 27.125 24 28.375 24.625 29.5C25.25 30.5833 26.1042 31.6042 27.1875 32.5625C28.3125 33.5208 29.6042 34.4375 31.0625 35.3125C32.5625 36.1875 34.1667 37.0417 35.875 37.875C40 39.4167 43.6458 41.1458 46.8125 43.0625C50.0208 44.9375 52.7083 47.0833 54.875 49.5C57.0417 51.875 58.6667 54.5833 59.75 57.625C60.875 60.6667 61.4375 64.1042 61.4375 67.9375C61.4375 72.0208 60.7708 75.6458 59.4375 78.8125C58.1458 81.9792 56.25 84.6667 53.75 86.875C51.25 89.0417 48.2292 90.6875 44.6875 91.8125C41.1875 92.9375 37.2292 93.5 32.8125 93.5C28.7708 93.5 24.7917 92.9167 20.875 91.75C17 90.5417 13.4792 88.7083 10.3125 86.25C7.1875 83.75 4.6875 80.5625 2.8125 76.6875C0.9375 72.7708 0 68.125 0 62.75H21.5C21.5 65.4167 21.7083 67.6667 22.125 69.5C22.5417 71.3333 23.1875 72.8125 24.0625 73.9375C24.9792 75.0208 26.1458 75.8125 27.5625 76.3125C28.9792 76.7708 30.7292 77 32.8125 77C34.7292 77 36.2083 76.6042 37.25 75.8125C38.3333 74.9792 39.0833 73.8958 39.5 72.5625C39.9167 71.1875 40.125 69.6875 40.125 68.0625Z" fill="#FFC700"/>
<path d="M112.562 1.25H134V63.1875C134 70.2708 132.729 76.0625 130.188 80.5625C127.646 85.0208 124.083 88.2917 119.5 90.375C114.917 92.4583 109.5 93.5 103.25 93.5C97.0417 93.5 91.625 92.4583 87 90.375C82.375 88.2917 78.75 85.0208 76.125 80.5625C73.5417 76.0625 72.25 70.2708 72.25 63.1875V1.25H93.75V63.1875C93.75 66.9375 94.0833 69.7917 94.75 71.75C95.4583 73.6667 96.5208 74.9583 97.9375 75.625C99.3542 76.2917 101.125 76.625 103.25 76.625C105.417 76.625 107.188 76.2917 108.562 75.625C109.938 74.9583 110.938 73.6667 111.562 71.75C112.229 69.7917 112.562 66.9375 112.562 63.1875V1.25Z" fill="#FFC700"/>
<path d="M178.188 61.375H160V44.4375H178.188C180.312 44.4375 182.021 43.9167 183.312 42.875C184.646 41.8333 185.604 40.3958 186.188 38.5625C186.812 36.6875 187.125 34.5833 187.125 32.25C187.125 29.75 186.812 27.4375 186.188 25.3125C185.604 23.1875 184.646 21.4792 183.312 20.1875C182.021 18.8542 180.312 18.1875 178.188 18.1875H167.812V92.25H146.438V1.25H178.188C184.479 1.25 189.896 2.58333 194.438 5.25C199.021 7.91667 202.542 11.5833 205 16.25C207.5 20.875 208.75 26.1667 208.75 32.125C208.75 38 207.5 43.125 205 47.5C202.542 51.875 199.021 55.2917 194.438 57.75C189.896 60.1667 184.479 61.375 178.188 61.375Z" fill="#FFC700"/>
<path d="M273.812 75.375V92.25H234V75.375H273.812ZM241.438 1.25V92.25H220.062V1.25H241.438ZM268.625 37.375V53.6875H234V37.375H268.625ZM274 1.25V18.1875H234V1.25H274Z" fill="#FFC700"/>
<path d="M282.625 1.25H313.75C319.833 1.25 325.104 2.29167 329.562 4.375C334.021 6.45833 337.438 9.54167 339.812 13.625C342.229 17.7083 343.438 22.75 343.438 28.75C343.438 33.9583 342.771 38.3125 341.438 41.8125C340.146 45.3125 338.312 48.2083 335.938 50.5C333.562 52.75 330.771 54.6042 327.562 56.0625L320.625 60.125H296.188L296.062 43.1875H313.25C315.208 43.1875 316.833 42.6875 318.125 41.6875C319.417 40.6875 320.375 39.2708 321 37.4375C321.667 35.5625 322 33.3333 322 30.75C322 28.125 321.688 25.875 321.062 24C320.438 22.125 319.521 20.6875 318.312 19.6875C317.146 18.6875 315.625 18.1875 313.75 18.1875H304V92.25H282.625V1.25ZM322.938 92.25L306.812 52L329.438 51.875L345.875 91.3125V92.25H322.938Z" fill="#FFC700"/>
<path d="M428.169 4.25L452.71 42.5376L446.298 50.6687L428.17 22.6048L396.499 69.0349L368.787 32.2111L374.376 83.0097H432.827L493.375 5.05051L485.923 92.25H364.828L357.375 5.05052L396.498 51.4806L428.169 4.25Z" fill="#FFC700"/>
<path d="M531.438 63.6875V1.25H552.75V63.6875C552.75 69.7708 551.542 75.0417 549.125 79.5C546.75 83.9583 543.5 87.4167 539.375 89.875C535.292 92.2917 530.708 93.5 525.625 93.5C520.417 93.5 515.75 92.4792 511.625 90.4375C507.542 88.3958 504.333 85.25 502 81C499.667 76.75 498.5 71.3333 498.5 64.75H519.938C519.938 67.8333 520.146 70.25 520.562 72C521.021 73.7083 521.667 74.9167 522.5 75.625C523.333 76.2917 524.375 76.625 525.625 76.625C526.958 76.625 528.042 76.125 528.875 75.125C529.708 74.0833 530.333 72.6042 530.75 70.6875C531.208 68.7292 531.438 66.3958 531.438 63.6875Z" fill="#FFC700"/>
<path d="M631.375 39.9375V53.6875C631.375 60.2292 630.562 65.9792 628.938 70.9375C627.312 75.8958 625 80.0625 622 83.4375C619 86.7708 615.438 89.2917 611.312 91C607.229 92.6667 602.688 93.5 597.688 93.5C592.646 93.5 588.062 92.6667 583.938 91C579.812 89.2917 576.25 86.7708 573.25 83.4375C570.25 80.0625 567.938 75.8958 566.312 70.9375C564.688 65.9792 563.875 60.2292 563.875 53.6875V39.9375C563.875 33.3958 564.688 27.625 566.312 22.625C567.938 17.625 570.229 13.4583 573.188 10.125C576.188 6.79167 579.75 4.27083 583.875 2.5625C588 0.854167 592.583 0 597.625 0C602.625 0 607.188 0.854167 611.312 2.5625C615.479 4.27083 619.042 6.79167 622 10.125C624.958 13.4583 627.25 17.625 628.875 22.625C630.542 27.625 631.375 33.3958 631.375 39.9375ZM609.688 53.6875V39.8125C609.688 35.7292 609.438 32.25 608.938 29.375C608.438 26.5 607.688 24.1667 606.688 22.375C605.688 20.5833 604.438 19.2708 602.938 18.4375C601.438 17.6042 599.667 17.1875 597.625 17.1875C595.5 17.1875 593.688 17.6042 592.188 18.4375C590.688 19.2708 589.438 20.5833 588.438 22.375C587.479 24.1667 586.771 26.5 586.312 29.375C585.854 32.25 585.625 35.7292 585.625 39.8125V53.6875C585.625 57.7292 585.854 61.1875 586.312 64.0625C586.771 66.8958 587.479 69.2292 588.438 71.0625C589.438 72.8958 590.708 74.25 592.25 75.125C593.792 75.9583 595.604 76.375 597.688 76.375C599.688 76.375 601.438 75.9583 602.938 75.125C604.479 74.25 605.729 72.8958 606.688 71.0625C607.688 69.2292 608.438 66.8958 608.938 64.0625C609.438 61.1875 609.688 57.7292 609.688 53.6875Z" fill="#FFC700"/>
<path d="M642.562 1.25H673.688C679.771 1.25 685.042 2.29167 689.5 4.375C693.958 6.45833 697.375 9.54167 699.75 13.625C702.167 17.7083 703.375 22.75 703.375 28.75C703.375 33.9583 702.708 38.3125 701.375 41.8125C700.083 45.3125 698.25 48.2083 695.875 50.5C693.5 52.75 690.708 54.6042 687.5 56.0625L680.562 60.125H656.125L656 43.1875H673.188C675.146 43.1875 676.771 42.6875 678.062 41.6875C679.354 40.6875 680.312 39.2708 680.938 37.4375C681.604 35.5625 681.938 33.3333 681.938 30.75C681.938 28.125 681.625 25.875 681 24C680.375 22.125 679.458 20.6875 678.25 19.6875C677.083 18.6875 675.562 18.1875 673.688 18.1875H663.938V92.25H642.562V1.25ZM682.875 92.25L666.75 52L689.375 51.875L705.812 91.3125V92.25H682.875Z" fill="#FFC700"/>
</svg>
